<svg id="Layer_1" data-name="Layer 1" xmlns="http://www.w3.org/2000/svg" viewBox="0 0 1521.72 145.26">
  <defs>
    <style>
      .cls-1 {
        font-size: 8.25px;
        fill: #231f20;
        font-family: Arial-BoldMT, Arial;
        font-weight: 700;
      }
    </style>
  </defs>
  <g>
    <g>
      <g>
        <path d="M374.26,138a64.47,64.47,0,0,0,25.05-4.67,60,60,0,0,0,19.86-13.09,60.62,60.62,0,0,0,13.11-19.81A62.88,62.88,0,0,0,436.7,83a130.76,130.76,0,0,0,.23-17.71H374.52L363.41,88.17H408a30.14,30.14,0,0,1-11.66,17.66q-9.07,6.72-21.72,6.66a36.4,36.4,0,0,1-15.16-3.24,39.14,39.14,0,0,1-12.25-8.64A39.62,39.62,0,0,1,339,87.83a42.41,42.41,0,0,1,.15-31.26,39.84,39.84,0,0,1,8.29-12.7,38.16,38.16,0,0,1,12.24-8.43,36.79,36.79,0,0,1,15.1-3,38.56,38.56,0,0,1,19.5,5,33.28,33.28,0,0,1,13.12,14.16L432,39.77A56.69,56.69,0,0,0,409.3,15.63q-15-8.76-34.2-8.85a65,65,0,0,0-25.68,5,66,66,0,0,0-21.13,14A67.86,67.86,0,0,0,314,46.59a62.48,62.48,0,0,0-5.37,25.46,63.39,63.39,0,0,0,5,25.5,67.2,67.2,0,0,0,13.9,20.94A65.35,65.35,0,0,0,374.26,138Z"/>
        <polygon points="49.45 8.99 16.01 8.99 22.32 22.1 22.32 122.7 16.01 135.8 92.74 135.8 99.69 110.98 49.45 110.98 49.45 8.99"/>
        <polygon points="108.96 135.8 183.73 135.8 183.73 111 136.17 111 136.17 83.18 172.95 83.18 179.6 59.34 136.17 59.34 136.17 33.69 183.73 33.69 183.73 8.99 108.96 8.99 108.96 135.8"/>
        <polygon points="559.97 135.8 634.75 135.8 634.75 111 587.19 111 587.19 83.18 623.96 83.18 630.62 59.34 587.19 59.34 587.19 33.69 634.75 33.69 634.75 8.99 559.97 8.99 559.97 135.8"/>
        <path d="M267.56,9H228.89l8.17,16.17L192.41,135.8h27.82l9.48-24.73H280l9.75,24.73h28.36ZM239,86.82l16.33-42.61L271,86.82Z"/>
        <polygon points="717.31 43.86 717.31 100.89 731.32 100.89 731.32 81.62 745.79 81.62 749.29 69.07 731.32 69.07 731.32 56.78 751.87 56.78 751.87 43.86 717.31 43.86"/>
        <path d="M682.68,42.73a29.65,29.65,0,1,0,29.59,29.65A29.65,29.65,0,0,0,682.68,42.73Zm0,45.54a15.89,15.89,0,1,1,15.83-15.89A15.88,15.88,0,0,1,682.68,88.27Z"/>
        <path d="M497.26,138a57.89,57.89,0,0,1-21.35-3.71A43.56,43.56,0,0,1,460,123.7a47.07,47.07,0,0,1-10-16.64,63.4,63.4,0,0,1-3.53-21.72V9h27.5V83.9q0,12.84,6,20.26t17.37,7.42q11.4,0,17.37-7.42t6-20.26V9h27.5V85.34a63.4,63.4,0,0,1-3.53,21.72,47.09,47.09,0,0,1-10,16.64,43.52,43.52,0,0,1-15.92,10.59A57.89,57.89,0,0,1,497.26,138Z"/>
      </g>
      <path d="M1284.12,9.3V136.09h-27.41L1197.5,53.7v82.39h-26.26V21.15l-6-11.85h34l58.67,83.53V9.3Z"/>
      <path d="M1398.1,48a62.55,62.55,0,0,0-13.81-20.06,64.82,64.82,0,0,0-20.49-13.37c-7.83-3.26-19-5.29-24.92-5.29H1296v126.8h42.81a65,65,0,0,0,45.43-18.19,62.32,62.32,0,0,0,13.84-20,61.65,61.65,0,0,0,5.07-24.92A61.55,61.55,0,0,0,1398.1,48Zm-25.68,39.72a37.71,37.71,0,0,1-7.86,11.92,37.23,37.23,0,0,1-11.84,8,36.45,36.45,0,0,1-14.63,3h-15V35.14h15a36.29,36.29,0,0,1,14.63,3,36.51,36.51,0,0,1,19.67,20.06,39.16,39.16,0,0,1,0,29.53Z"/>
      <path d="M1011.23,138.28a64.36,64.36,0,0,0,25-4.67,59.76,59.76,0,0,0,19.85-13.09,60.7,60.7,0,0,0,13.12-19.81,62.78,62.78,0,0,0,4.41-17.39,130.73,130.73,0,0,0,.23-17.71h-62.41l-11.1,22.87h44.53a30.14,30.14,0,0,1-11.65,17.65q-9.08,6.74-21.72,6.67a36.76,36.76,0,0,1-15.17-3.24A39.16,39.16,0,0,1,976,88.13a42.48,42.48,0,0,1,.16-31.26,39.51,39.51,0,0,1,8.29-12.7,38.39,38.39,0,0,1,12.23-8.43,37.17,37.17,0,0,1,15.11-3,38.52,38.52,0,0,1,19.49,5,33.16,33.16,0,0,1,13.12,14.16L1069,40.08a56.72,56.72,0,0,0-22.74-24.15q-15-8.75-34.2-8.85a64.86,64.86,0,0,0-25.69,5,65.86,65.86,0,0,0-21.12,14A67.88,67.88,0,0,0,951,46.89a62.65,62.65,0,0,0-5.37,25.46,63.56,63.56,0,0,0,5,25.5,67.37,67.37,0,0,0,13.9,20.94,65.25,65.25,0,0,0,46.71,19.49Z"/>
      <polygon points="806.48 9.29 773.04 9.29 779.36 22.4 779.36 123 773.04 136.1 849.77 136.1 856.73 111.28 806.48 111.28 806.48 9.29"/>
      <polygon points="865.99 136.1 940.76 136.1 940.76 111.29 893.2 111.29 893.2 83.48 929.98 83.48 936.63 59.63 893.2 59.63 893.2 33.99 940.76 33.99 940.76 9.29 865.99 9.29 865.99 136.1"/>
      <polygon points="1083.4 136.1 1158.17 136.1 1158.17 111.29 1110.62 111.29 1110.62 83.48 1147.39 83.48 1154.04 59.63 1110.62 59.63 1110.62 33.99 1158.17 33.99 1158.17 9.29 1083.4 9.29 1083.4 136.1"/>
      <path d="M1464.83,61.08l-17.12-3.29c-7.7-1.48-11.94-5.8-11.94-12.16,0-8.68,8.9-13.87,17.5-13.87,2.93,0,17.51.76,20.51,15.3l23.59-11.52c-3.48-10.35-13.9-28.28-44.27-28.28-24.49,0-44.42,18-44.42,40.09,0,18.76,12.53,32.51,33.53,36.78l17.13,3.46c8.45,1.69,13.5,6.5,13.5,12.86,0,8.24-7,13.23-18.19,13.35-13.61.14-24.61-10-26.31-19.94l-22.67,12.65c5.2,16.93,21.22,32,48.81,32,17.36,0,28.07-6.7,34-12.33a37.86,37.86,0,0,0,12-27.24C1500.46,79.83,1486.81,65.34,1464.83,61.08Z"/>
    </g>
    <text class="cls-1" transform="translate(1493.79 15.21)">TM</text>
  </g>
</svg>
